<?xml version="1.0" encoding="UTF-8" standalone="no"?>
<!-- Generated by IcoMoon.io -->

<svg
   xmlns:dc="http://purl.org/dc/elements/1.1/"
   xmlns:cc="http://creativecommons.org/ns#"
   xmlns:rdf="http://www.w3.org/1999/02/22-rdf-syntax-ns#"
   xmlns:svg="http://www.w3.org/2000/svg"
   xmlns="http://www.w3.org/2000/svg"
   xmlns:sodipodi="http://sodipodi.sourceforge.net/DTD/sodipodi-0.dtd"
   xmlns:inkscape="http://www.inkscape.org/namespaces/inkscape"
   version="1.1"
   width="305"
   height="485"
   viewBox="0 0 305 485"
   id="svg107"
   sodipodi:docname="confisio-logo-vector-trazo-white.svg"
   inkscape:version="0.92.1 r">
  <metadata
     id="metadata113">
    <rdf:RDF>
      <cc:Work
         rdf:about="">
        <dc:format>image/svg+xml</dc:format>
        <dc:type
           rdf:resource="http://purl.org/dc/dcmitype/StillImage" />
        <dc:title></dc:title>
      </cc:Work>
    </rdf:RDF>
  </metadata>
  <defs
     id="defs111" />
  <sodipodi:namedview
     pagecolor="#ffffff"
     bordercolor="#666666"
     borderopacity="1"
     objecttolerance="10"
     gridtolerance="10"
     guidetolerance="10"
     inkscape:pageopacity="0"
     inkscape:pageshadow="2"
     inkscape:window-width="1280"
     inkscape:window-height="701"
     id="namedview109"
     showgrid="false"
     inkscape:zoom="0.38867188"
     inkscape:cx="512"
     inkscape:cy="512"
     inkscape:window-x="0"
     inkscape:window-y="23"
     inkscape:window-maximized="0"
     inkscape:current-layer="svg107"
     borderlayer="true" />
  <g
     id="icomoon-ignore"
     transform="translate(0,-539)" />
  <g
     id="g4701"
     style="fill:none;stroke:#ffffff;stroke-opacity:1;stroke-width:11.33858268;stroke-miterlimit:4;stroke-dasharray:none">
    <path
       style="fill:none;fill-opacity:1;stroke:#ffffff;stroke-width:11.33858268;stroke-miterlimit:4;stroke-dasharray:none;stroke-opacity:1"
       inkscape:connector-curvature="0"
       id="path101"
       d="M 129.19251,482.1222 C 90.953827,478.7456 61.411845,465.4193 37.844301,440.9189 21.214177,423.62828 9.9310747,402.1232 4.5811957,377.51825 2.1727874,366.44266 2.1638619,338.15699 4.5647558,326.92855 15.612542,275.25982 53.772342,237.56795 103.68794,229.01979 c 13.38196,-2.29165 34.57472,-2.44905 46.64005,-0.3466 19.60795,3.41608 32.91745,9.83372 49.9935,24.1065 13.33299,11.14399 27.50036,30.16445 27.50036,36.91984 0,3.22688 -6.90331,10.44606 -12.70895,13.29141 -5.75853,2.82216 -15.33872,4.01769 -19.42442,2.42481 -1.47868,-0.57704 -3.34869,-2.57199 -4.46501,-4.7637 -2.80779,-5.51284 -12.17597,-15.13135 -19.98899,-20.52509 -15.3727,-10.60929 -24.9961,-13.60884 -43.91969,-13.68907 -13.73871,-0.0569 -23.40059,1.69449 -34.705917,6.29553 -22.451925,9.13862 -39.746839,29.04899 -47.65678,54.86413 -2.314448,7.55374 -2.538487,9.65185 -2.58922,24.26394 -0.04429,13.97599 0.215094,16.93346 2.092337,23.42381 6.436669,22.26048 19.163017,39.56555 38.508271,52.36369 16.776213,11.09836 33.407149,16.57263 53.275159,17.53633 25.21098,1.2226 50.60115,-5.59574 66.89335,-17.96409 7.65913,-5.81441 16.07896,-15.10099 22.7616,-25.10225 11.07698,-16.58029 13.17349,-34.12459 13.2009,-110.4749 0.0231,-78.2133 2.41061,-100.31995 14.114,-130.9038 2.15326,-5.62625 4.2292,-11.50033 4.61393,-13.05245 2.35699,-9.5138 12.65639,-18.4748 22.84359,-19.87396 12.54456,-1.72197 23.78496,9.42636 21.89475,21.7161 -0.88983,5.78078 -3.09745,12.01988 -9.0039,25.44367 -2.95999,6.72753 -6.70239,16.36249 -8.31667,21.41182 -5.63045,17.615 -5.81728,19.83712 -6.69571,79.73415 -0.44442,30.27283 -1.02336,64.14496 -1.2862,75.27121 -1.09597,46.37375 -8.01675,63.83147 -36.75505,92.71122 -6.71658,6.74883 -15.39972,14.44213 -19.29632,17.09239 -14.33243,9.76257 -30.08998,16.31197 -46.93905,19.51837 -9.80592,1.8588 -32.05101,2.5534 -45.07392,1.4094 z m -7.51434,-82.33734 c -9.16325,-1.9879 -17.32877,-6.43827 -23.867901,-13.00831 -19.418917,-19.51104 -19.411458,-49.56764 0.0126,-68.91157 10.640591,-10.59461 25.841801,-15.75511 40.263751,-13.66948 33.9898,4.91474 52.20074,41.25901 36.00052,71.84666 -6.20281,11.71179 -20.99033,22.07941 -34.56568,24.23342 -7.70259,1.22265 -10.27601,1.15183 -17.84688,-0.49072 z M 40.426969,216.05154 c -4.758596,-2.25759 -7.330926,-5.06779 -10.051675,-10.98126 -2.128933,-4.62666 -2.163226,-5.2528 -2.451138,-44.68059 -0.335805,-46.02427 -0.05531,-48.41734 6.559782,-55.94424 6.762054,-7.69494 14.860865,-8.09163 21.869183,-1.07127 7.446451,7.45886 7.557231,8.26715 7.557231,55.15431 v 40.94833 l -3.130283,6.3692 c -4.950218,10.07231 -12.575101,13.89594 -20.352664,10.20605 z M 199.97878,203.82488 c -2.53304,-1.84961 -4.82618,-4.74973 -6.57459,-8.31828 l -2.68616,-5.47864 -0.26365,-70.43156 c -0.22989,-61.24759 -0.0796,-71.18584 1.19903,-76.21239 5.13957,-20.31231 24.00713,-22.56953 32.59456,-3.89881 l 2.16389,4.7047 v 144.93621 l -3.00839,6.12162 c -3.82949,7.7915 -7.4316,10.56435 -14.35487,11.0515 -4.58167,0.32257 -5.63022,0.0354 -9.07028,-2.47496 z m -51.59009,-11.78147 c -4.49346,-2.04017 -9.38589,-8.46789 -11.09816,-14.58048 -1.34467,-4.79999 -1.5228,-14.0297 -1.5228,-78.95233 0,-49.35472 0.33498,-75.08277 1.02063,-78.28245 2.2099,-10.32377 11.23017,-18.7223 18.70483,-17.41536 5.83754,1.02051 9.90131,4.51602 13.30799,11.44462 l 3.13025,6.3674 0.2818,73.41106 c 0.29973,78.12711 0.11096,82.35252 -4.11951,89.60893 -4.59668,7.89499 -12.96131,11.46039 -19.70503,8.39861 z m -56.8198,-2.31882 c -2.777408,-1.76652 -5.11913,-4.36582 -6.993543,-7.76259 L 81.75741,176.85532 V 45.13089 l 2.793912,-5.05281 c 3.478752,-6.29153 7.721715,-9.62359 13.015302,-10.2211 7.952226,-0.8983 14.987806,5.07108 18.071006,15.33214 1.9898,6.62266 1.9898,124.98537 0,131.6086 -1.91321,6.36841 -5.75269,11.44837 -10.32875,13.66763 -5.349903,2.59477 -8.786289,2.40942 -13.739249,-0.74107 z" />
  </g>
  <path
     d="m 494.001,481.628 c -104.542,-6.521 -162.98,-28.436 -217.873,-81.7 -41.727,-40.491 -69.118,-91.884 -79.372,-148.927 -4.989,-27.756 -4.488,-70.911 1.139,-98 19.645,-94.575 81.138,-167.582 166.506,-197.682 71.273,-25.13 159.431,-19.381 214.937,14.016 38.956,23.44 86.996,76.401 90.067,99.293 0.928,6.919 0.213,8.795 -6.068,15.738 -10.416,11.53 -25.252,18.928 -40.391,20.143 -18.417,1.479 -21.325,0.189 -29.477,-13.013 -14.871,-24.093 -54.014,-53.747 -84.468,-63.99 -15.061,-5.066 -18.114,-5.377 -52,-5.309 -33.277,0.071 -37.331,0.48 -53.593,5.456 -9.676,2.961 -23.176,8.181 -30,11.601 -63.393,31.769 -102.495,100.955 -98.76,174.746 3.701,73.125 44.589,132.887 114.353,167.139 50.722,24.902 103.42,29.677 164.452,14.899 36.029,-8.724 60.532,-22.556 86.56,-48.864 28.545,-28.851 41.728,-51.549 48.124,-82.855 6.811,-33.34 8.124,-60.394 9.771,-201.318 1.294,-110.777 2.296,-144.076 4.938,-164 4.791,-36.145 10.116,-59.81 19.346,-85.96 4.472,-12.672 10.882,-30.937 14.243,-40.588 5.333,-15.312 7.47,-18.79 16.768,-27.288 26.617,-24.326 61.723,-20.373 73.703,8.3 6.575,15.737 2.846,31.128 -20.488,84.537 -26.113,59.77 -27.772,74.026 -29.345,252 -1.238,140.122 -2.268,161.697 -9.266,194.274 -8.902,41.43 -25.72,69.923 -65.782,111.443 -39.733,41.178 -75.651,63.233 -124.094,76.197 -22.684,6.071 -64.588,10.921 -83.93,9.714 z M 442.55,303.923 c -36.284,-9.772 -66.348,-40.073 -74.39,-74.978 -3.03,-13.148 -2.597,-37.422 0.907,-50.874 11.112,-42.662 53.476,-75.149 97.854,-75.04 43.799,0.118 82.181,27.307 97.327,68.971 6.17,16.972 6.193,48.975 0.047,65.838 -18.16,49.839 -72.517,79.343 -121.747,66.083 z M 272.845,-85.836 c -8.573,-3.733 -18.41,-16.32 -21.902,-28.026 -4.434,-14.86 -4.313,-173.797 0.142,-188.802 5.262,-17.719 19.366,-30.335 33.914,-30.335 13.421,0 23.611,8.12 31.402,25.025 4.53,9.829 4.607,11.204 5.2,93.666 0.397,55.248 -0.142,87.28 -1.59,94.25 -5.673,27.325 -27.177,42.927 -47.168,34.222 z m 347.215,-22.235 c -9.647,-4.317 -13.668,-8.368 -19.776,-19.928 l -5.284,-10 v -314 l 5.697,-11.602 c 17.205,-35.039 56.9,-26.873 65.266,13.425 1.434,6.907 1.956,59.568 1.585,160.233 l -0.55,149.944 -5.697,11.602 c -9.165,18.665 -26.198,27.059 -41.243,20.326 z M 502.937,-136.9 c -6.989,-2.833 -18.292,-17.126 -21.731,-27.48 -2.974,-8.953 -3.243,-26.071 -2.751,-174.772 l 0.546,-164.848 6,-10.931 c 16.21,-29.532 45.488,-28.842 60.349,1.422 l 5.651,11.508 v 334 l -4.726,9 c -5.734,10.92 -11.49,17.452 -18.675,21.19 -5.889,3.064 -18.225,3.519 -24.662,0.909 z m -118.577,-3.463 c -7.964,-3.925 -15.012,-12.734 -19.82,-24.774 -3.262,-8.169 -3.539,-19.35 -3.539,-142.863 0,-123.513 0.276,-134.694 3.539,-142.863 7.602,-19.037 18.566,-28.137 33.897,-28.137 11.622,0 21.153,6.763 28.57,20.272 l 5.891,10.728 1.623,64 c 2.327,91.737 1.013,208.045 -2.448,217 -9.726,25.16 -28.941,35.887 -47.712,26.636 z"
     id="path103"
     style="fill:none;stroke:none"
     inkscape:connector-curvature="0" />
  <path
     d="m 453.233,476.806 c -71.874,-7.581 -128.793,-32.761 -175.94,-77.834 -58.619,-56.04 -89.891,-139.739 -81.672,-218.589 6.971,-66.88 33.974,-123.428 80.232,-168.021 35.536,-34.257 74.693,-54.55 126.771,-65.697 16.63,-3.56 26.997,-4.365 56.377,-4.381 31.929,-0.018 38.56,0.579 58.636,5.27 38.837,9.075 65.967,23.342 96.24,50.607 29.751,26.795 51.514,55.452 53.53,70.486 0.893,6.656 0.094,8.376 -7.361,16.069 -11.824,12.184 -25.808,18.249 -42.045,18.235 -7.15,-0.006 -13.903,-0.673 -15.006,-1.481 -1.103,-0.808 -5.406,-6.672 -9.562,-13.031 C 576.094,61.907 539.673,35.173 507,24.993 487.328,18.864 447.742,17.366 422.384,21.792 351.013,34.248 296.789,85.842 277.526,159.624 c -6.14,23.518 -6.074,65.198 0.142,90.257 5.227,21.07 18.729,50.565 31.05,67.832 23.748,33.28 68.211,64.657 110.28,77.823 48.02,15.028 106.193,13.652 155.817,-3.685 24.646,-8.611 42.406,-20.156 64.381,-41.85 31.746,-31.34 45.324,-54.807 51.673,-89.305 6.176,-33.556 7.463,-61.395 9.239,-199.695 0.994,-77.55 2.32,-144.6 2.944,-149 5.885,-41.523 7.943,-52.927 13.07,-72.437 3.243,-12.34 9.821,-32.593 14.619,-45.005 4.798,-12.412 9.341,-25.385 10.097,-28.828 3.458,-15.742 30.334,-34.775 48.98,-34.685 10.081,0.047 23.262,5.231 28.604,11.247 5.267,5.932 9.576,17.758 9.576,26.282 0,10.911 -4.642,25.23 -17.919,55.272 -16.05,36.317 -21.321,51.735 -27.294,79.833 -5.142,24.189 -5.18,25.049 -6.836,156.323 -2.029,160.792 -2.837,184.724 -7.057,209 -7.567,43.527 -20.017,69.637 -50.691,106.309 -48.915,58.479 -103.162,90.6 -170.203,100.782 -20.487,3.111 -68.6,3.474 -94.767,0.713 z M 441.376,301.997 c -65.856,-18.103 -95.062,-96.085 -57.214,-152.764 35.491,-53.148 111.081,-59.686 155.48,-13.449 38.599,40.197 37.709,100.097 -2.088,140.614 -23.573,23.998 -63.419,34.604 -96.177,25.599 z M 270.777,-88.69 c -7.671,-4.824 -13.93,-13.404 -17.819,-24.429 -4.26,-12.075 -4.369,-174.556 -0.118,-188.653 10.625,-35.305 44.824,-39.697 60.501,-7.77 l 5.668,11.542 v 180 l -5.624,11.452 c -3.093,6.299 -8.383,13.417 -11.756,15.818 -8.592,6.118 -22.858,7.061 -30.844,2.039 z m 346.103,-23.216 c -5.282,-3.167 -10.176,-8.578 -14,-15.481 L 597.001,-138 596.453,-290.821 c -0.612,-170.517 -0.853,-167.082 12.76,-182.15 13.314,-14.736 30.162,-15.104 42.607,-0.931 13.936,15.872 13.121,5.576 13.742,173.681 0.619,167.795 0.744,165.899 -11.911,180.313 -12.054,13.729 -23.178,16.149 -36.771,8.001 z M 496.952,-143.31 c -3.953,-3.471 -9.159,-9.996 -11.57,-14.5 L 481,-166 480.454,-331.306 c -0.534,-161.749 -0.458,-165.539 3.503,-176.123 4.496,-12.017 13.971,-22.975 21.497,-24.864 3.667,-0.921 4.238,-1.672 2.235,-2.941 -1.727,-1.094 0.397,-1.715 5.928,-1.736 5.243,-0.019 8.134,0.754 7.382,1.97 -0.68,1.101 0.142,2.001 1.812,2.001 5.053,0 16.467,11.438 21.479,21.523 l 4.709,9.476 0.567,162.997 c 0.508,145.957 0.236,164.043 -2.679,173 -6.324,19.481 -17.395,29.003 -33.72,29.003 -7.28,0 -10.423,-1.224 -16.217,-6.311 z m -115.32,-0.647 c -4.621,-3.14 -9.375,-9.191 -12.964,-16.5 L 363,-171.999 v -133 c 0,-151.427 -0.477,-146.33 15.25,-162.647 l 9.511,-9.868 11.164,0.926 c 19.099,1.583 29.782,15.779 33.241,44.172 1.202,9.874 1.739,64.643 1.344,137.418 -0.737,135.901 -0.142,130.433 -15.626,146.5 -8.496,8.823 -9.854,9.5 -19.052,9.5 -7.246,0 -11.862,-1.33 -17.2,-4.958 z"
     id="path105"
     style="fill:none"
     inkscape:connector-curvature="0" />
</svg>
