<?xml version="1.0" encoding="UTF-8" standalone="no"?>
<!-- Created with Inkscape (http://www.inkscape.org/) -->
<svg xmlns:svg="http://www.w3.org/2000/svg" xmlns="http://www.w3.org/2000/svg" version="1.0" width="800" height="500" id="svg2">
  <defs id="defs4"/>
  <rect width="366.38913" height="366.38913" x="-191.89655" y="294.88989" transform="matrix(0.8529445,-0.5220016,0.8529445,0.5220016,0,0)" id="rect3223" style="fill:#ffffff;fill-opacity:1;fill-rule:nonzero;stroke:#ed1c23;stroke-width:90.38775635;stroke-linecap:round;stroke-linejoin:miter;stroke-miterlimit:4;stroke-opacity:1;stroke-dasharray:none"/>
  <rect width="381.573" height="156.87653" x="207.17291" y="175.32243" id="rect3225" style="fill:#0c4da2;fill-opacity:1;fill-rule:nonzero;stroke:none"/>
  <path d="m 333.18114,294.03929 -15.90422,0 0,-69.58909 -23.95138,69.58909 -8.17389,0 -24.0781,-69.58909 0,69.58909 -13.70486,0 0,-79.48881 25.36374,0 18.12195,51.18732 17.80509,-51.18732 24.52167,0 0,79.48881 z m 53.59953,-18.75118 13.05287,1.63053 c -1.68975,5.31866 -4.98467,9.70558 -9.88472,13.16078 -4.90014,3.45519 -11.04639,5.18278 -18.43874,5.18278 -8.8709,0 -16.00984,-2.73697 -21.41685,-8.21094 -5.407,-5.47394 -8.11051,-12.88901 -8.11051,-22.24521 0,-8.89028 2.72461,-16.2471 8.17389,-22.0705 5.44925,-5.82332 12.84161,-8.73498 22.17719,-8.73506 9.1243,8e-5 16.17874,2.87294 21.16339,8.61857 4.98452,5.74575 7.4768,13.12202 7.47689,22.12875 l -0.0634,1.51408 -43.91084,0 c -2e-5,3.99871 0.41182,7.20157 1.23557,9.60855 0.82371,2.40699 2.46058,4.50341 4.91066,6.28921 2.45004,1.78583 5.51259,2.67874 9.1877,2.67874 7.1389,0 11.95451,-3.18342 14.44687,-9.55028 l 0,0 z m -0.88708,-17.58655 c -0.0423,-4.2316 -1.42574,-7.6868 -4.15033,-10.36556 -2.72466,-2.6787 -6.09348,-4.01807 -10.10644,-4.01812 -3.97082,5e-5 -7.28685,1.25207 -9.94806,3.75607 -2.66129,2.50407 -4.22427,6.04661 -4.68889,10.62761 l 28.89372,0 z m 48.02946,37.61887 c -3.88631,0 -7.22346,-0.70852 -10.01142,-2.12552 -2.78802,-1.41701 -4.82619,-3.35813 -6.11459,-5.82336 -1.28839,-2.4652 -1.93258,-6.26008 -1.93256,-11.38465 l 0,-30.45614 -7.9838,0 0,-10.30736 8.80753,0 0,-16.30538 13.17958,0 0,16.30538 12.86277,0 0,10.30736 -12.86277,0 0,28.70914 c -2e-5,3.68815 0.72866,6.20187 2.18602,7.54124 1.45735,1.33939 7.60447,2.00907 11.65977,2.00907 l 0,11.53022 -9.79053,0 z m 36.62407,-1.28114 -14.44688,0 0,-58.81589 13.05287,0 0,14.03429 c 1.85864,-5.47391 4.41429,-9.47258 7.66698,-11.99611 3.25261,-2.52339 6.58977,-3.78512 10.01143,-3.78518 0.46461,6e-5 1.09825,0.0195 1.9009,0.0582 l 0,14.26722 c -7.3502,4e-5 -12.21862,2.15469 -14.60529,6.46393 -2.3867,4.3093 -3.58003,8.4827 -3.58001,12.52021 l 0,27.25329 z m 53.66881,1.22291 c -9.46231,0 -16.68571,-3.12519 -21.67031,-9.3756 -4.98458,-6.2504 -7.47688,-13.41311 -7.47688,-21.48818 0,-8.69618 2.75631,-15.93653 8.26894,-21.72111 5.5126,-5.78447 12.78881,-8.67674 21.8287,-8.67682 8.57513,8e-5 15.61902,2.81468 21.13168,8.44387 5.51258,5.6293 8.26887,12.94731 8.26893,21.95406 -6e-5,9.27856 -2.86196,16.74214 -8.58573,22.3908 -5.72388,5.64865 -12.979,8.47298 -21.76533,8.47298 l 0,0 z m 0.50691,-10.94792 c 9.71567,2e-5 14.57351,-6.65801 14.57358,-19.97409 -7e-5,-6.01743 -1.16172,-10.76346 -3.48499,-14.23812 -2.32339,-3.47455 -5.89285,-5.21185 -10.70842,-5.21191 -4.98461,6e-5 -8.68082,1.79559 -11.0886,5.38662 -2.40782,3.5911 -3.61174,8.35655 -3.61172,14.29635 -2e-5,6.4057 1.2778,11.29732 3.83347,14.67484 2.55564,3.37757 6.0512,5.06633 10.48668,5.06631 l 0,0 z" id="text3210" style="font-size:64.85678864px;font-style:normal;font-variant:normal;font-weight:normal;font-stretch:normal;text-align:start;line-height:100%;writing-mode:lr-tb;text-anchor:start;fill:#ffffff;fill-opacity:1;stroke:none;font-family:Franklin Gothic Medium;-inkscape-font-specification:'Franklin Gothic Medium,'"/>
</svg>