<?xml version="1.0" encoding="UTF-8" standalone="no"?>
<!-- Created with Inkscape (http://www.inkscape.org/) -->

<svg
   xmlns:dc="http://purl.org/dc/elements/1.1/"
   xmlns:cc="http://creativecommons.org/ns#"
   xmlns:rdf="http://www.w3.org/1999/02/22-rdf-syntax-ns#"
   xmlns:svg="http://www.w3.org/2000/svg"
   xmlns="http://www.w3.org/2000/svg"
   xmlns:sodipodi="http://sodipodi.sourceforge.net/DTD/sodipodi-0.dtd"
   xmlns:inkscape="http://www.inkscape.org/namespaces/inkscape"
   version="1.1"
   id="svg5861"
   width="32"
   height="32"
   viewBox="0 0 32 32"
   sodipodi:docname="confisio-32.svg"
   inkscape:version="0.92.1 r">
  <metadata
     id="metadata5867">
    <rdf:RDF>
      <cc:Work
         rdf:about="">
        <dc:format>image/svg+xml</dc:format>
        <dc:type
           rdf:resource="http://purl.org/dc/dcmitype/StillImage" />
        <dc:title></dc:title>
      </cc:Work>
    </rdf:RDF>
  </metadata>
  <defs
     id="defs5865" />
  <sodipodi:namedview
     pagecolor="#ffffff"
     bordercolor="#666666"
     borderopacity="1"
     objecttolerance="10"
     gridtolerance="10"
     guidetolerance="10"
     inkscape:pageopacity="0"
     inkscape:pageshadow="2"
     inkscape:window-width="1280"
     inkscape:window-height="701"
     id="namedview5863"
     showgrid="false"
     inkscape:zoom="13.741626"
     inkscape:cx="8.603411"
     inkscape:cy="15.312437"
     inkscape:window-x="0"
     inkscape:window-y="23"
     inkscape:window-maximized="0"
     inkscape:current-layer="svg5861" />
  <g
     id="g6062"
     transform="matrix(0.19584691,0,0,0.19584691,-6.5332493,-0.30341836)">
    <path
       inkscape:connector-curvature="0"
       id="use5990"
       d="m 106.04264,164.73364 c -15.341492,-1.59738 -27.440302,-8.51209 -34.968932,-19.98543 -3.33689,-5.0853 -5.28274,-9.86241 -6.53772,-16.05027 -0.81773,-4.03197 -0.90181,-11.43466 -0.17706,-15.59064 1.49925,-8.59735 5.96171,-17.217369 12.05264,-23.281795 2.6795,-2.667843 7.12045,-5.928864 10.15849,-7.459456 6.72931,-3.390291 16.387402,-5.124009 24.193752,-4.343011 9.20179,0.920608 15.50958,3.767315 22.03548,9.944624 4.60098,4.355207 7.87751,9.024803 7.87751,11.226746 0,1.227222 -2.28081,3.700492 -4.38261,4.752432 -1.61095,0.80626 -4.41655,1.18315 -6.24644,0.8391 -0.85266,-0.16031 -1.22798,-0.51459 -1.9892,-1.87766 -1.30064,-2.329 -4.33065,-5.270023 -7.67619,-7.450752 -4.72886,-3.082429 -8.1023,-4.040624 -14.16465,-4.023344 -10.449832,0.02979 -19.061562,4.635334 -24.258452,12.973396 -5.22665,8.38583 -6.08717,18.94941 -2.27917,27.97855 5.23556,12.41399 19.29002,20.64347 33.755062,19.765 4.01726,-0.24397 9.93306,-1.51847 13.06283,-2.81425 4.61194,-1.90943 9.44707,-6.02566 12.83532,-10.92693 2.14388,-3.10124 2.82011,-4.63994 3.57657,-8.13825 1.11314,-5.14777 1.349,-9.90174 1.61559,-32.563497 0.14914,-12.67799 0.41603,-23.580531 0.61491,-25.12 0.93757,-7.25719 1.88814,-11.323206 3.85277,-16.48 0.73758,-1.936 1.53861,-4.214051 1.78006,-5.062333 0.84748,-2.977411 2.65284,-4.963449 5.76222,-6.33888 2.12708,-0.940905 5.03449,-0.747427 6.7475,0.449031 2.59458,1.812192 3.48901,4.482444 2.66829,7.966 -0.22109,0.9384 -1.37237,3.938182 -2.5584,6.666182 -3.39157,7.80097 -4.43936,11.475546 -5.09557,17.870138 -0.19418,1.892259 -0.34318,11.388867 -0.3509,22.365659 -0.016,22.7542 -0.32899,28.3095 -1.96078,34.80405 -1.22161,4.86206 -3.19191,8.3384 -7.93096,13.99324 -6.88631,8.21703 -15.1074,13.29945 -24.9778,15.44172 -2.88048,0.62518 -12.893,0.90181 -17.03416,0.47063 z m -1.91572,-27.98085 c -5.593832,-1.42192 -9.915882,-5.38464 -11.811122,-10.82914 -2.1054,-6.04823 -0.68925,-12.25168 3.84993,-16.86465 6.587372,-6.69446 16.881802,-6.78451 23.461082,-0.20523 1.1906,1.19061 2.43771,2.85375 3.05437,4.07331 1.06511,2.10647 1.9845,5.65576 1.9845,7.66113 0,1.99948 -0.91816,5.55221 -1.97517,7.64273 -0.56807,1.12351 -1.83147,2.85385 -2.80757,3.84522 -3.15276,3.2021 -6.68256,4.77875 -11.20614,5.00545 -1.75759,0.0881 -3.36746,-0.0282 -4.54988,-0.32882 z M 76.836798,74.384158 c -1.5268,-0.666377 -3.27563,-2.847225 -3.84001,-4.788611 -0.43352,-1.491277 -0.49235,-3.739082 -0.41278,-15.773229 0.0928,-14.034115 0.0928,-14.034115 0.94492,-15.851923 1.11833,-2.385661 2.96168,-3.782192 4.99231,-3.782192 2.6942,0 4.68941,1.771626 5.88202,5.222858 0.51292,1.484297 0.57373,3.015622 0.58309,14.681392 0.007,8.205628 -0.11817,13.623958 -0.33719,14.645206 -0.68283,3.183933 -3.50337,6.090826 -5.89236,6.072755 -0.528,-0.004 -1.392,-0.195811 -1.92,-0.426256 z m 55.522282,-3.585709 c -1.53825,-0.667072 -2.47735,-1.610579 -3.47396,-3.490246 -0.84832,-1.6 -0.84832,-1.6 -0.84832,-26.88 0,-25.279999 0,-25.279999 0.75611,-26.719999 0.98279,-1.8717 1.8501,-2.801878 3.31114,-3.551142 1.47508,-0.7564646 2.30063,-0.7573135 3.93275,-0.004 1.61471,0.745238 2.4936,1.699787 3.42436,3.719172 0.73564,1.596014 0.73564,1.596014 0.82545,25.578017 0.0619,16.527095 -0.0195,24.508842 -0.26202,25.67681 -0.48477,2.335117 -2.04509,4.568374 -3.8156,5.461187 -1.66121,0.837702 -2.32004,0.87368 -3.84991,0.210246 z m -19.16379,-4.837606 c -0.59483,-0.29303 -1.49625,-1.105318 -2.00316,-1.805078 -1.91039,-2.637223 -1.87533,-2.073629 -1.87533,-30.148896 0,-29.192704 -0.11367,-27.831128 2.55362,-30.589109 1.4971,-1.548004 3.04452,-2.140191 4.58328,-1.753986 1.17391,0.294632 2.86283,1.563159 3.66395,2.75194 1.71919,2.551099 1.70456,2.274191 1.60822,30.445599 -0.0891,26.04689 -0.0891,26.04689 -0.81971,27.48689 -0.94459,1.86167 -1.63948,2.67625 -2.98031,3.493677 -1.31764,0.803283 -3.24316,0.851709 -4.73056,0.118963 z M 94.731938,65.752027 c -1.27439,-0.577837 -2.84895,-2.501619 -3.55701,-4.345901 -0.50703,-1.320646 -0.56962,-3.338915 -0.66476,-21.434736 -0.1069,-20.332005 0.0201,-23.290164 1.09082,-25.413906 0.6575,-1.304071 1.96708,-2.706924 3.05992,-3.277849 1.23903,-0.647299 3.42925,-0.562836 4.64621,0.179176 1.344382,0.819707 2.781222,2.828411 3.257552,4.554074 0.28008,1.014688 0.35504,7.083475 0.28587,23.14422 -0.0937,21.768903 -0.0937,21.768903 -0.89518,23.325879 -1.12163,2.179033 -2.779672,3.446067 -4.705972,3.596173 -0.88382,0.06887 -1.9495,-0.06961 -2.51745,-0.32713 z"
       style="fill:#59b947;fill-opacity:1;stroke:none;stroke-width:0.31999999;stroke-opacity:1" />
    <path
       inkscape:connector-curvature="0"
       id="path5998"
       d="m 106.53717,164.51019 c -20.334471,-1.51822 -36.245645,-14.28475 -41.224982,-33.07737 -0.957443,-3.61351 -1.09166,-4.92295 -1.117164,-10.89928 -0.0249,-5.83497 0.103301,-7.28428 0.909557,-10.28238 2.187293,-8.13354 5.754118,-14.420558 11.346926,-20.000495 6.408231,-6.393485 12.42117,-9.584896 21.417179,-11.367322 3.420774,-0.677776 5.213274,-0.784658 10.315114,-0.615065 6.87329,0.228478 9.83397,0.837434 14.54812,2.992264 6.53647,2.987822 14.14957,9.919816 16.97332,15.454821 1.20557,2.363108 1.02186,3.166735 -1.21729,5.324987 -1.55627,1.50005 -2.49173,2.04146 -4.13684,2.39427 -3.43256,0.73615 -4.12719,0.60866 -5.53966,-1.01674 -5.52831,-6.361746 -8.77335,-8.908582 -13.79691,-10.82842 -2.42087,-0.925173 -3.33692,-1.039272 -8.47737,-1.055891 -6.53257,-0.02112 -9.594617,0.679858 -14.746689,3.375853 -11.157356,5.838458 -17.068401,20.706888 -13.439008,33.803998 3.800421,13.71427 17.502248,23.52216 32.853067,23.5165 7.1719,-0.002 14.5523,-1.90475 19.23921,-4.9584 3.15452,-2.05525 8.05504,-7.16307 10.01182,-10.43535 3.24103,-5.41988 3.65343,-9.23038 4.17014,-38.532173 0.52637,-29.849687 0.82663,-32.334354 5.39285,-44.62493 2.11983,-5.70579 3.10541,-7.117636 5.91975,-8.480034 3.64963,-1.766757 7.74455,-0.685093 9.38566,2.479201 1.25026,2.410683 0.77656,5.107078 -2.16813,12.341543 -5.02392,12.342658 -5.36137,14.915467 -5.37233,40.960003 -0.0141,33.48096 -0.99058,37.76406 -11.25998,49.3888 -5.43117,6.14797 -13.63062,11.21486 -21.28011,13.15016 -4.3366,1.09714 -11.91266,1.49868 -18.70625,0.99145 z"
       style="fill:#59b947;fill-opacity:1;stroke:none;stroke-width:4.66762161;stroke-miterlimit:4;stroke-dasharray:none;stroke-opacity:1" />
    <path
       inkscape:connector-curvature="0"
       id="path6000"
       d="m 103.00059,136.21921 c -4.472346,-1.4309 -7.826038,-4.47505 -10.00288,-9.07963 -1.144829,-2.42161 -1.274515,-3.09237 -1.277227,-6.60604 -0.0027,-3.52067 0.123721,-4.17765 1.267583,-6.58653 6.58728,-13.87226 26.136524,-12.60826 30.642774,1.98128 1.30271,4.21771 0.91503,8.20562 -1.19987,12.3424 -3.50267,6.85123 -11.99801,10.32648 -19.43038,7.94852 z"
       style="fill:#59b947;fill-opacity:1;stroke:none;stroke-width:4.66762161;stroke-miterlimit:4;stroke-dasharray:none;stroke-opacity:1" />
    <path
       inkscape:connector-curvature="0"
       id="path6002"
       d="m 131.79591,70.246398 c -0.82448,-0.478083 -1.93595,-1.631616 -2.46995,-2.563408 l -0.97091,-1.694168 V 40.26018 14.531537 l 0.94698,-1.522968 c 2.62409,-4.2201545 7.3509,-4.0990348 9.67693,0.247961 0.89595,1.674392 0.90338,1.865651 1.02076,26.285273 0.0791,16.450824 -0.0268,25.137151 -0.31957,26.224497 -0.72749,2.701664 -3.55431,5.38547 -5.64436,5.358795 -0.40746,-0.0052 -1.41541,-0.400614 -2.23988,-0.878697 z"
       style="fill:#59b947;fill-opacity:1;stroke:none;stroke-width:4.66762161;stroke-miterlimit:4;stroke-dasharray:none;stroke-opacity:1" />
    <path
       inkscape:connector-curvature="0"
       id="path6004"
       d="m 113.19529,65.960843 c -0.49956,-0.241285 -1.42579,-1.185275 -2.05829,-2.097761 l -1.15,-1.659057 -0.12754,-25.970058 c -0.0701,-14.283531 -0.009,-26.9527851 0.13536,-28.1538965 0.19451,-1.6156695 0.59167,-2.5582765 1.52655,-3.6230385 2.52177,-2.872143 4.52046,-3.187438 7.21381,-1.137982 2.92444,2.225305 2.77826,0.592813 2.77826,31.026869 v 27.375276 l -0.95564,1.536967 c -1.42625,2.293884 -2.78971,3.201648 -4.76018,3.169242 -0.93172,-0.01531 -2.10276,-0.225276 -2.60233,-0.466561 z"
       style="fill:#59b947;fill-opacity:1;stroke:none;stroke-width:4.66762161;stroke-miterlimit:4;stroke-dasharray:none;stroke-opacity:1" />
    <path
       inkscape:connector-curvature="0"
       id="path6006"
       d="M 93.113715,64.139192 C 92.189249,63.167378 91.41595,61.863166 91.222078,60.94884 91.041717,60.098239 90.894149,49.676863 90.894149,37.79023 V 16.17817 l 1.14807,-1.953084 c 1.303787,-2.21799 2.853678,-3.192644 5.076926,-3.192644 1.276204,0 1.825563,0.306574 3.292205,1.837243 1.04172,1.087193 1.86209,2.389646 2.0095,3.190351 0.13701,0.74421 0.193,11.263782 0.12442,23.376827 l -0.12468,22.023718 -0.93349,1.501124 c -1.28092,2.059844 -2.597726,2.821288 -4.878991,2.821288 -1.716405,0 -2.104237,-0.182439 -3.494394,-1.643801 z"
       style="fill:#59b947;fill-opacity:1;stroke:none;stroke-width:4.66762161;stroke-miterlimit:4;stroke-dasharray:none;stroke-opacity:1" />
    <path
       inkscape:connector-curvature="0"
       id="path6008"
       d="m 77.738242,74.538016 c -1.491802,-0.37676 -2.719957,-1.450537 -3.841869,-3.35895 l -1.115189,-1.896978 0.02138,-14.819698 c 0.02076,-14.385658 0.04755,-14.869799 0.914746,-16.530333 1.221833,-2.339602 2.71983,-3.435093 4.697215,-3.435093 2.363823,0 3.724425,0.899238 5.089641,3.363808 l 1.215104,2.193578 v 14.40804 c 0,14.06934 -0.02135,14.447951 -0.90818,16.105805 -0.865516,1.618008 -3.086329,3.859622 -3.823807,3.859622 -0.190523,0 -0.593113,0.0706 -0.894646,0.156898 -0.301533,0.08629 -0.911013,0.06528 -1.3544,-0.0467 z"
       style="fill:#59b947;fill-opacity:1;stroke:none;stroke-width:4.66762161;stroke-miterlimit:4;stroke-dasharray:none;stroke-opacity:1" />
  </g>
</svg>
